<?xml version="1.0" encoding="UTF-8" standalone="no"?>
<!DOCTYPE svg PUBLIC "-//W3C//DTD SVG 1.1//EN"
 "http://www.w3.org/Graphics/SVG/1.1/DTD/svg11.dtd">
<!-- Generated by graphviz version 2.43.0 (0)
 -->
<!-- Title: %3 Pages: 1 -->
<svg width="190pt" height="305pt"
 viewBox="0.00 0.00 190.00 305.00" xmlns="http://www.w3.org/2000/svg" xmlns:xlink="http://www.w3.org/1999/xlink">
<g id="graph0" class="graph" transform="scale(1 1) rotate(0) translate(4 301)">
<title>%3</title>
<polygon fill="white" stroke="transparent" points="-4,4 -4,-301 186,-301 186,4 -4,4"/>
<!-- A -->
<g id="node1" class="node">
<title>A</title>
<ellipse fill="none" stroke="black" cx="71" cy="-279" rx="27" ry="18"/>
<text text-anchor="middle" x="71" y="-275.3" font-family="Times,serif" font-size="14.00">A</text>
</g>
<!-- A&#45;&gt;A -->
<g id="edge2" class="edge">
<title>A&#45;&gt;A</title>
<path fill="none" stroke="black" d="M95.53,-286.75C106.51,-287.49 116,-284.91 116,-279 116,-275.03 111.72,-272.56 105.57,-271.59"/>
<polygon fill="black" stroke="black" points="105.65,-268.09 95.53,-271.25 105.41,-275.09 105.65,-268.09"/>
<text text-anchor="middle" x="127.5" y="-275.3" font-family="Times,serif" font-size="14.00">0/0</text>
</g>
<!-- B -->
<g id="node2" class="node">
<title>B</title>
<ellipse fill="none" stroke="black" cx="27" cy="-192" rx="27" ry="18"/>
<text text-anchor="middle" x="27" y="-188.3" font-family="Times,serif" font-size="14.00">B</text>
</g>
<!-- A&#45;&gt;B -->
<g id="edge1" class="edge">
<title>A&#45;&gt;B</title>
<path fill="none" stroke="black" d="M46.18,-271.32C32.02,-266.1 15.46,-257.27 7,-243 2.17,-234.85 4.3,-225.32 8.63,-216.77"/>
<polygon fill="black" stroke="black" points="11.76,-218.36 13.98,-208 5.78,-214.72 11.76,-218.36"/>
<text text-anchor="middle" x="18.5" y="-231.8" font-family="Times,serif" font-size="14.00">1/0</text>
</g>
<!-- B&#45;&gt;A -->
<g id="edge4" class="edge">
<title>B&#45;&gt;A</title>
<path fill="none" stroke="black" d="M35.46,-209.34C41.78,-221.56 50.55,-238.49 57.79,-252.49"/>
<polygon fill="black" stroke="black" points="54.81,-254.34 62.52,-261.61 61.03,-251.12 54.81,-254.34"/>
<text text-anchor="middle" x="62.5" y="-231.8" font-family="Times,serif" font-size="14.00">0/0</text>
</g>
<!-- C -->
<g id="node3" class="node">
<title>C</title>
<ellipse fill="none" stroke="black" cx="86" cy="-105" rx="27" ry="18"/>
<text text-anchor="middle" x="86" y="-101.3" font-family="Times,serif" font-size="14.00">C</text>
</g>
<!-- B&#45;&gt;C -->
<g id="edge3" class="edge">
<title>B&#45;&gt;C</title>
<path fill="none" stroke="black" d="M34.13,-174.58C38.84,-164.49 45.52,-151.53 53,-141 56.27,-136.4 60.1,-131.8 63.98,-127.51"/>
<polygon fill="black" stroke="black" points="66.57,-129.87 70.9,-120.2 61.49,-125.05 66.57,-129.87"/>
<text text-anchor="middle" x="64.5" y="-144.8" font-family="Times,serif" font-size="14.00">1/0</text>
</g>
<!-- C&#45;&gt;A -->
<g id="edge6" class="edge">
<title>C&#45;&gt;A</title>
<path fill="none" stroke="black" d="M85.12,-123.34C83.71,-149.37 80.63,-200.08 76,-243 75.72,-245.56 75.4,-248.23 75.06,-250.89"/>
<polygon fill="black" stroke="black" points="71.57,-250.56 73.68,-260.94 78.51,-251.51 71.57,-250.56"/>
<text text-anchor="middle" x="92.5" y="-188.3" font-family="Times,serif" font-size="14.00">0/0</text>
</g>
<!-- D -->
<g id="node4" class="node">
<title>D</title>
<ellipse fill="none" stroke="black" cx="114" cy="-18" rx="27" ry="18"/>
<text text-anchor="middle" x="114" y="-14.3" font-family="Times,serif" font-size="14.00">D</text>
</g>
<!-- C&#45;&gt;D -->
<g id="edge5" class="edge">
<title>C&#45;&gt;D</title>
<path fill="none" stroke="black" d="M91.53,-87.21C95.44,-75.33 100.77,-59.17 105.25,-45.56"/>
<polygon fill="black" stroke="black" points="108.68,-46.35 108.48,-35.76 102.03,-44.16 108.68,-46.35"/>
<text text-anchor="middle" x="112.5" y="-57.8" font-family="Times,serif" font-size="14.00">1/0</text>
</g>
<!-- D&#45;&gt;A -->
<g id="edge7" class="edge">
<title>D&#45;&gt;A</title>
<path fill="none" stroke="black" d="M121.46,-35.39C123.71,-41.15 125.88,-47.75 127,-54 128.18,-60.56 127.31,-62.34 127,-69 124.08,-132.17 128.43,-150.16 108,-210 102.79,-225.25 94.35,-241.13 86.84,-253.71"/>
<polygon fill="black" stroke="black" points="83.86,-251.87 81.6,-262.22 89.82,-255.54 83.86,-251.87"/>
<text text-anchor="middle" x="134.5" y="-144.8" font-family="Times,serif" font-size="14.00">0/1</text>
</g>
<!-- D&#45;&gt;D -->
<g id="edge8" class="edge">
<title>D&#45;&gt;D</title>
<path fill="none" stroke="black" d="M138.53,-25.75C149.51,-26.49 159,-23.91 159,-18 159,-14.03 154.72,-11.56 148.57,-10.59"/>
<polygon fill="black" stroke="black" points="148.65,-7.09 138.53,-10.25 148.41,-14.09 148.65,-7.09"/>
<text text-anchor="middle" x="170.5" y="-14.3" font-family="Times,serif" font-size="14.00">1/0</text>
</g>
</g>
</svg>
