<?xml version="1.0" encoding="UTF-8" standalone="no"?>
<!DOCTYPE svg PUBLIC "-//W3C//DTD SVG 1.1//EN"
 "http://www.w3.org/Graphics/SVG/1.1/DTD/svg11.dtd">
<!-- Generated by graphviz version 2.43.0 (0)
 -->
<!-- Title: %3 Pages: 1 -->
<svg width="302pt" height="653pt"
 viewBox="0.00 0.00 302.00 653.00" xmlns="http://www.w3.org/2000/svg" xmlns:xlink="http://www.w3.org/1999/xlink">
<g id="graph0" class="graph" transform="scale(1 1) rotate(0) translate(4 649)">
<title>%3</title>
<polygon fill="white" stroke="transparent" points="-4,4 -4,-649 298,-649 298,4 -4,4"/>
<!-- A -->
<g id="node1" class="node">
<title>A</title>
<ellipse fill="none" stroke="black" cx="85" cy="-627" rx="27" ry="18"/>
<text text-anchor="middle" x="85" y="-623.3" font-family="Times,serif" font-size="14.00">A</text>
</g>
<!-- A&#45;&gt;A -->
<g id="edge2" class="edge">
<title>A&#45;&gt;A</title>
<path fill="none" stroke="black" d="M109.53,-634.75C120.51,-635.49 130,-632.91 130,-627 130,-623.03 125.72,-620.56 119.57,-619.59"/>
<polygon fill="black" stroke="black" points="119.65,-616.09 109.53,-619.25 119.41,-623.09 119.65,-616.09"/>
<text text-anchor="middle" x="141.5" y="-623.3" font-family="Times,serif" font-size="14.00">0/0</text>
</g>
<!-- B -->
<g id="node2" class="node">
<title>B</title>
<ellipse fill="none" stroke="black" cx="127" cy="-540" rx="27" ry="18"/>
<text text-anchor="middle" x="127" y="-536.3" font-family="Times,serif" font-size="14.00">B</text>
</g>
<!-- A&#45;&gt;B -->
<g id="edge1" class="edge">
<title>A&#45;&gt;B</title>
<path fill="none" stroke="black" d="M96.89,-610.5C101.07,-604.6 105.57,-597.69 109,-591 112.74,-583.69 116.06,-575.42 118.79,-567.74"/>
<polygon fill="black" stroke="black" points="122.16,-568.71 122.04,-558.12 115.53,-566.47 122.16,-568.71"/>
<text text-anchor="middle" x="126.5" y="-579.8" font-family="Times,serif" font-size="14.00">1/0</text>
</g>
<!-- B&#45;&gt;A -->
<g id="edge4" class="edge">
<title>B&#45;&gt;A</title>
<path fill="none" stroke="black" d="M105.87,-551.7C96.76,-557.53 87.04,-565.69 82,-576 78.59,-582.98 77.92,-591.18 78.5,-598.9"/>
<polygon fill="black" stroke="black" points="75.06,-599.56 79.93,-608.97 81.99,-598.57 75.06,-599.56"/>
<text text-anchor="middle" x="93.5" y="-579.8" font-family="Times,serif" font-size="14.00">0/0</text>
</g>
<!-- C -->
<g id="node3" class="node">
<title>C</title>
<ellipse fill="none" stroke="black" cx="61" cy="-453" rx="27" ry="18"/>
<text text-anchor="middle" x="61" y="-449.3" font-family="Times,serif" font-size="14.00">C</text>
</g>
<!-- B&#45;&gt;C -->
<g id="edge3" class="edge">
<title>B&#45;&gt;C</title>
<path fill="none" stroke="black" d="M109.22,-526.4C101.42,-520.26 92.57,-512.4 86,-504 80.33,-496.75 75.42,-488 71.5,-479.87"/>
<polygon fill="black" stroke="black" points="74.67,-478.39 67.36,-470.73 68.3,-481.28 74.67,-478.39"/>
<text text-anchor="middle" x="97.5" y="-492.8" font-family="Times,serif" font-size="14.00">1/0</text>
</g>
<!-- C&#45;&gt;A -->
<g id="edge6" class="edge">
<title>C&#45;&gt;A</title>
<path fill="none" stroke="black" d="M61.02,-471.14C61.4,-497.35 63.57,-548.79 74,-591 74.7,-593.84 75.51,-596.79 76.35,-599.71"/>
<polygon fill="black" stroke="black" points="73.04,-600.85 79.31,-609.39 79.73,-598.8 73.04,-600.85"/>
<text text-anchor="middle" x="78.5" y="-536.3" font-family="Times,serif" font-size="14.00">0/0</text>
</g>
<!-- D -->
<g id="node4" class="node">
<title>D</title>
<ellipse fill="none" stroke="black" cx="27" cy="-366" rx="27" ry="18"/>
<text text-anchor="middle" x="27" y="-362.3" font-family="Times,serif" font-size="14.00">D</text>
</g>
<!-- C&#45;&gt;D -->
<g id="edge5" class="edge">
<title>C&#45;&gt;D</title>
<path fill="none" stroke="black" d="M54.28,-435.21C49.46,-423.14 42.86,-406.64 37.36,-392.89"/>
<polygon fill="black" stroke="black" points="40.55,-391.45 33.59,-383.47 34.05,-394.05 40.55,-391.45"/>
<text text-anchor="middle" x="57.5" y="-405.8" font-family="Times,serif" font-size="14.00">1/0</text>
</g>
<!-- D&#45;&gt;A -->
<g id="edge8" class="edge">
<title>D&#45;&gt;A</title>
<path fill="none" stroke="black" d="M26.36,-384.04C25.88,-397.8 25.26,-417.64 25,-435 24.76,-451 22.88,-455.14 25,-471 32.48,-526.86 42.77,-539.65 66,-591 67.47,-594.25 69.12,-597.61 70.81,-600.9"/>
<polygon fill="black" stroke="black" points="67.81,-602.7 75.61,-609.87 73.98,-599.4 67.81,-602.7"/>
<text text-anchor="middle" x="41.5" y="-492.8" font-family="Times,serif" font-size="14.00">0/0</text>
</g>
<!-- E -->
<g id="node5" class="node">
<title>E</title>
<ellipse fill="none" stroke="black" cx="27" cy="-279" rx="27" ry="18"/>
<text text-anchor="middle" x="27" y="-275.3" font-family="Times,serif" font-size="14.00">E</text>
</g>
<!-- D&#45;&gt;E -->
<g id="edge7" class="edge">
<title>D&#45;&gt;E</title>
<path fill="none" stroke="black" d="M27,-347.8C27,-336.16 27,-320.55 27,-307.24"/>
<polygon fill="black" stroke="black" points="30.5,-307.18 27,-297.18 23.5,-307.18 30.5,-307.18"/>
<text text-anchor="middle" x="38.5" y="-318.8" font-family="Times,serif" font-size="14.00">1/0</text>
</g>
<!-- E&#45;&gt;E -->
<g id="edge10" class="edge">
<title>E&#45;&gt;E</title>
<path fill="none" stroke="black" d="M51.53,-286.75C62.51,-287.49 72,-284.91 72,-279 72,-275.03 67.72,-272.56 61.57,-271.59"/>
<polygon fill="black" stroke="black" points="61.65,-268.09 51.53,-271.25 61.41,-275.09 61.65,-268.09"/>
<text text-anchor="middle" x="83.5" y="-275.3" font-family="Times,serif" font-size="14.00">1/0</text>
</g>
<!-- F -->
<g id="node6" class="node">
<title>F</title>
<ellipse fill="none" stroke="black" cx="119" cy="-192" rx="27" ry="18"/>
<text text-anchor="middle" x="119" y="-188.3" font-family="Times,serif" font-size="14.00">F</text>
</g>
<!-- E&#45;&gt;F -->
<g id="edge9" class="edge">
<title>E&#45;&gt;F</title>
<path fill="none" stroke="black" d="M42.19,-263.96C56.84,-250.43 79.2,-229.77 96.03,-214.22"/>
<polygon fill="black" stroke="black" points="98.82,-216.41 103.79,-207.06 94.07,-211.27 98.82,-216.41"/>
<text text-anchor="middle" x="89.5" y="-231.8" font-family="Times,serif" font-size="14.00">0/0</text>
</g>
<!-- F&#45;&gt;B -->
<g id="edge12" class="edge">
<title>F&#45;&gt;B</title>
<path fill="none" stroke="black" d="M120.29,-210.25C121.46,-227.41 123,-254.51 123,-278 123,-454 123,-454 123,-454 123,-473.27 124.04,-494.97 125.06,-511.62"/>
<polygon fill="black" stroke="black" points="121.57,-512 125.71,-521.75 128.56,-511.55 121.57,-512"/>
<text text-anchor="middle" x="134.5" y="-362.3" font-family="Times,serif" font-size="14.00">1/0</text>
</g>
<!-- G -->
<g id="node7" class="node">
<title>G</title>
<ellipse fill="none" stroke="black" cx="165" cy="-105" rx="27" ry="18"/>
<text text-anchor="middle" x="165" y="-101.3" font-family="Times,serif" font-size="14.00">G</text>
</g>
<!-- F&#45;&gt;G -->
<g id="edge11" class="edge">
<title>F&#45;&gt;G</title>
<path fill="none" stroke="black" d="M123.53,-174.19C126.59,-164.2 131.14,-151.47 137,-141 139.28,-136.92 142.04,-132.82 144.92,-128.94"/>
<polygon fill="black" stroke="black" points="147.83,-130.91 151.29,-120.89 142.34,-126.57 147.83,-130.91"/>
<text text-anchor="middle" x="148.5" y="-144.8" font-family="Times,serif" font-size="14.00">0/0</text>
</g>
<!-- G&#45;&gt;B -->
<g id="edge14" class="edge">
<title>G&#45;&gt;B</title>
<path fill="none" stroke="black" d="M167.9,-123.2C170.53,-140.33 174,-167.41 174,-191 174,-454 174,-454 174,-454 174,-477.41 160.18,-500.42 147.53,-516.58"/>
<polygon fill="black" stroke="black" points="144.76,-514.44 141.1,-524.38 150.16,-518.89 144.76,-514.44"/>
<text text-anchor="middle" x="185.5" y="-318.8" font-family="Times,serif" font-size="14.00">1/0</text>
</g>
<!-- H -->
<g id="node8" class="node">
<title>H</title>
<ellipse fill="none" stroke="black" cx="220" cy="-18" rx="27" ry="18"/>
<text text-anchor="middle" x="220" y="-14.3" font-family="Times,serif" font-size="14.00">H</text>
</g>
<!-- G&#45;&gt;H -->
<g id="edge13" class="edge">
<title>G&#45;&gt;H</title>
<path fill="none" stroke="black" d="M169.02,-86.88C171.89,-76.77 176.43,-64.04 183,-54 186.41,-48.79 190.75,-43.79 195.24,-39.29"/>
<polygon fill="black" stroke="black" points="197.89,-41.6 202.82,-32.23 193.12,-36.48 197.89,-41.6"/>
<text text-anchor="middle" x="194.5" y="-57.8" font-family="Times,serif" font-size="14.00">0/0</text>
</g>
<!-- H&#45;&gt;A -->
<g id="edge16" class="edge">
<title>H&#45;&gt;A</title>
<path fill="none" stroke="black" d="M235.03,-33.11C250.07,-48.83 271,-75.78 271,-104 271,-541 271,-541 271,-541 271,-605.74 176.63,-621.38 122.33,-625.02"/>
<polygon fill="black" stroke="black" points="121.83,-621.54 112.05,-625.6 122.23,-628.53 121.83,-621.54"/>
<text text-anchor="middle" x="282.5" y="-318.8" font-family="Times,serif" font-size="14.00">0/0</text>
</g>
<!-- H&#45;&gt;B -->
<g id="edge15" class="edge">
<title>H&#45;&gt;B</title>
<path fill="none" stroke="black" d="M220,-36.26C220,-53.43 220,-80.54 220,-104 220,-454 220,-454 220,-454 220,-487.85 186.02,-511.84 159.13,-525.51"/>
<polygon fill="black" stroke="black" points="157.48,-522.43 149.99,-529.92 160.52,-528.73 157.48,-522.43"/>
<text text-anchor="middle" x="231.5" y="-275.3" font-family="Times,serif" font-size="14.00">1/1</text>
</g>
</g>
</svg>
