<?xml version="1.0" encoding="UTF-8" standalone="no"?>
<!DOCTYPE svg PUBLIC "-//W3C//DTD SVG 1.1//EN"
 "http://www.w3.org/Graphics/SVG/1.1/DTD/svg11.dtd">
<!-- Generated by graphviz version 2.43.0 (0)
 -->
<!-- Title: %3 Pages: 1 -->
<svg width="103pt" height="131pt"
 viewBox="0.00 0.00 103.00 131.00" xmlns="http://www.w3.org/2000/svg" xmlns:xlink="http://www.w3.org/1999/xlink">
<g id="graph0" class="graph" transform="scale(1 1) rotate(0) translate(4 127)">
<title>%3</title>
<polygon fill="white" stroke="transparent" points="-4,4 -4,-127 99,-127 99,4 -4,4"/>
<!-- A -->
<g id="node1" class="node">
<title>A</title>
<ellipse fill="none" stroke="black" cx="27" cy="-105" rx="27" ry="18"/>
<text text-anchor="middle" x="27" y="-101.3" font-family="Times,serif" font-size="14.00">A</text>
</g>
<!-- A&#45;&gt;A -->
<g id="edge2" class="edge">
<title>A&#45;&gt;A</title>
<path fill="none" stroke="black" d="M51.53,-112.75C62.51,-113.49 72,-110.91 72,-105 72,-101.03 67.72,-98.56 61.57,-97.59"/>
<polygon fill="black" stroke="black" points="61.65,-94.09 51.53,-97.25 61.41,-101.09 61.65,-94.09"/>
<text text-anchor="middle" x="83.5" y="-101.3" font-family="Times,serif" font-size="14.00">1/0</text>
</g>
<!-- B -->
<g id="node2" class="node">
<title>B</title>
<ellipse fill="none" stroke="black" cx="27" cy="-18" rx="27" ry="18"/>
<text text-anchor="middle" x="27" y="-14.3" font-family="Times,serif" font-size="14.00">B</text>
</g>
<!-- A&#45;&gt;B -->
<g id="edge1" class="edge">
<title>A&#45;&gt;B</title>
<path fill="none" stroke="black" d="M14.9,-88.88C10.93,-83.02 7.03,-76.03 5,-69 2.44,-60.13 5.01,-50.77 9.18,-42.58"/>
<polygon fill="black" stroke="black" points="12.23,-44.3 14.38,-33.92 6.23,-40.7 12.23,-44.3"/>
<text text-anchor="middle" x="16.5" y="-57.8" font-family="Times,serif" font-size="14.00">0/0</text>
</g>
<!-- B&#45;&gt;A -->
<g id="edge4" class="edge">
<title>B&#45;&gt;A</title>
<path fill="none" stroke="black" d="M27.59,-36.09C27.76,-41.78 27.92,-48.16 28,-54 28.1,-61.35 28.03,-69.31 27.89,-76.66"/>
<polygon fill="black" stroke="black" points="24.38,-76.79 27.63,-86.88 31.38,-76.97 24.38,-76.79"/>
<text text-anchor="middle" x="39.5" y="-57.8" font-family="Times,serif" font-size="14.00">1/0</text>
</g>
<!-- B&#45;&gt;B -->
<g id="edge3" class="edge">
<title>B&#45;&gt;B</title>
<path fill="none" stroke="black" d="M51.53,-25.75C62.51,-26.49 72,-23.91 72,-18 72,-14.03 67.72,-11.56 61.57,-10.59"/>
<polygon fill="black" stroke="black" points="61.65,-7.09 51.53,-10.25 61.41,-14.09 61.65,-7.09"/>
<text text-anchor="middle" x="83.5" y="-14.3" font-family="Times,serif" font-size="14.00">0/1</text>
</g>
</g>
</svg>
