<?xml version="1.0" encoding="UTF-8" standalone="no"?>
<!DOCTYPE svg PUBLIC "-//W3C//DTD SVG 1.1//EN"
 "http://www.w3.org/Graphics/SVG/1.1/DTD/svg11.dtd">
<!-- Generated by graphviz version 2.43.0 (0)
 -->
<!-- Title: %3 Pages: 1 -->
<svg width="123pt" height="218pt"
 viewBox="0.00 0.00 123.00 218.00" xmlns="http://www.w3.org/2000/svg" xmlns:xlink="http://www.w3.org/1999/xlink">
<g id="graph0" class="graph" transform="scale(1 1) rotate(0) translate(4 214)">
<title>%3</title>
<polygon fill="white" stroke="transparent" points="-4,4 -4,-214 119,-214 119,4 -4,4"/>
<!-- A/0 -->
<g id="node1" class="node">
<title>A/0</title>
<ellipse fill="none" stroke="black" cx="60" cy="-192" rx="27" ry="18"/>
<text text-anchor="middle" x="60" y="-188.3" font-family="Times,serif" font-size="14.00">A/0</text>
</g>
<!-- A/0&#45;&gt;A/0 -->
<g id="edge2" class="edge">
<title>A/0&#45;&gt;A/0</title>
<path fill="none" stroke="black" d="M84.53,-199.75C95.51,-200.49 105,-197.91 105,-192 105,-188.03 100.72,-185.56 94.57,-184.59"/>
<polygon fill="black" stroke="black" points="94.65,-181.09 84.53,-184.25 94.41,-188.09 94.65,-181.09"/>
<text text-anchor="middle" x="110" y="-188.3" font-family="Times,serif" font-size="14.00">1</text>
</g>
<!-- B/0 -->
<g id="node2" class="node">
<title>B/0</title>
<ellipse fill="none" stroke="black" cx="27" cy="-105" rx="27" ry="18"/>
<text text-anchor="middle" x="27" y="-101.3" font-family="Times,serif" font-size="14.00">B/0</text>
</g>
<!-- A/0&#45;&gt;B/0 -->
<g id="edge1" class="edge">
<title>A/0&#45;&gt;B/0</title>
<path fill="none" stroke="black" d="M43.25,-177.38C37.28,-171.5 31.24,-164.1 28,-156 25.2,-148.99 24.18,-140.96 24.07,-133.43"/>
<polygon fill="black" stroke="black" points="27.57,-133.37 24.41,-123.26 20.57,-133.14 27.57,-133.37"/>
<text text-anchor="middle" x="33" y="-144.8" font-family="Times,serif" font-size="14.00">0</text>
</g>
<!-- B/0&#45;&gt;A/0 -->
<g id="edge4" class="edge">
<title>B/0&#45;&gt;A/0</title>
<path fill="none" stroke="black" d="M33.51,-122.76C38.16,-134.74 44.51,-151.1 49.83,-164.8"/>
<polygon fill="black" stroke="black" points="46.6,-166.15 53.48,-174.21 53.12,-163.62 46.6,-166.15"/>
<text text-anchor="middle" x="50" y="-144.8" font-family="Times,serif" font-size="14.00">1</text>
</g>
<!-- C/1 -->
<g id="node3" class="node">
<title>C/1</title>
<ellipse fill="none" stroke="black" cx="58" cy="-18" rx="27" ry="18"/>
<text text-anchor="middle" x="58" y="-14.3" font-family="Times,serif" font-size="14.00">C/1</text>
</g>
<!-- B/0&#45;&gt;C/1 -->
<g id="edge3" class="edge">
<title>B/0&#45;&gt;C/1</title>
<path fill="none" stroke="black" d="M33.12,-87.21C37.5,-75.22 43.47,-58.85 48.46,-45.16"/>
<polygon fill="black" stroke="black" points="51.75,-46.35 51.89,-35.76 45.17,-43.95 51.75,-46.35"/>
<text text-anchor="middle" x="49" y="-57.8" font-family="Times,serif" font-size="14.00">0</text>
</g>
<!-- C/1&#45;&gt;A/0 -->
<g id="edge6" class="edge">
<title>C/1&#45;&gt;A/0</title>
<path fill="none" stroke="black" d="M59.6,-36.03C60.81,-49.77 62.36,-69.61 63,-87 63.95,-112.98 62.89,-142.61 61.77,-163.59"/>
<polygon fill="black" stroke="black" points="58.27,-163.52 61.19,-173.7 65.26,-163.92 58.27,-163.52"/>
<text text-anchor="middle" x="68" y="-101.3" font-family="Times,serif" font-size="14.00">1</text>
</g>
<!-- C/1&#45;&gt;C/1 -->
<g id="edge5" class="edge">
<title>C/1&#45;&gt;C/1</title>
<path fill="none" stroke="black" d="M82.53,-25.75C93.51,-26.49 103,-23.91 103,-18 103,-14.03 98.72,-11.56 92.57,-10.59"/>
<polygon fill="black" stroke="black" points="92.65,-7.09 82.53,-10.25 92.41,-14.09 92.65,-7.09"/>
<text text-anchor="middle" x="108" y="-14.3" font-family="Times,serif" font-size="14.00">0</text>
</g>
</g>
</svg>
