<?xml version="1.0" encoding="UTF-8" standalone="no"?>
<!DOCTYPE svg PUBLIC "-//W3C//DTD SVG 1.1//EN"
 "http://www.w3.org/Graphics/SVG/1.1/DTD/svg11.dtd">
<!-- Generated by graphviz version 2.43.0 (0)
 -->
<!-- Title: %3 Pages: 1 -->
<svg width="280pt" height="740pt"
 viewBox="0.00 0.00 280.00 740.00" xmlns="http://www.w3.org/2000/svg" xmlns:xlink="http://www.w3.org/1999/xlink">
<g id="graph0" class="graph" transform="scale(1 1) rotate(0) translate(4 736)">
<title>%3</title>
<polygon fill="white" stroke="transparent" points="-4,4 -4,-736 276,-736 276,4 -4,4"/>
<!-- A/0 -->
<g id="node1" class="node">
<title>A/0</title>
<ellipse fill="none" stroke="black" cx="143" cy="-714" rx="27" ry="18"/>
<text text-anchor="middle" x="143" y="-710.3" font-family="Times,serif" font-size="14.00">A/0</text>
</g>
<!-- A/0&#45;&gt;A/0 -->
<g id="edge2" class="edge">
<title>A/0&#45;&gt;A/0</title>
<path fill="none" stroke="black" d="M167.53,-721.75C178.51,-722.49 188,-719.91 188,-714 188,-710.03 183.72,-707.56 177.57,-706.59"/>
<polygon fill="black" stroke="black" points="177.65,-703.09 167.53,-706.25 177.41,-710.09 177.65,-703.09"/>
<text text-anchor="middle" x="193" y="-710.3" font-family="Times,serif" font-size="14.00">0</text>
</g>
<!-- B/0 -->
<g id="node2" class="node">
<title>B/0</title>
<ellipse fill="none" stroke="black" cx="140" cy="-627" rx="27" ry="18"/>
<text text-anchor="middle" x="140" y="-623.3" font-family="Times,serif" font-size="14.00">B/0</text>
</g>
<!-- A/0&#45;&gt;B/0 -->
<g id="edge1" class="edge">
<title>A/0&#45;&gt;B/0</title>
<path fill="none" stroke="black" d="M134.4,-696.71C131.81,-690.96 129.3,-684.35 128,-678 126.42,-670.3 127.34,-661.99 129.24,-654.39"/>
<polygon fill="black" stroke="black" points="132.66,-655.19 132.28,-644.61 125.97,-653.12 132.66,-655.19"/>
<text text-anchor="middle" x="133" y="-666.8" font-family="Times,serif" font-size="14.00">1</text>
</g>
<!-- B/0&#45;&gt;A/0 -->
<g id="edge4" class="edge">
<title>B/0&#45;&gt;A/0</title>
<path fill="none" stroke="black" d="M140.61,-645.18C141.02,-656.81 141.57,-672.42 142.04,-685.73"/>
<polygon fill="black" stroke="black" points="138.54,-685.93 142.39,-695.8 145.54,-685.68 138.54,-685.93"/>
<text text-anchor="middle" x="146" y="-666.8" font-family="Times,serif" font-size="14.00">0</text>
</g>
<!-- C/0 -->
<g id="node3" class="node">
<title>C/0</title>
<ellipse fill="none" stroke="black" cx="27" cy="-540" rx="27" ry="18"/>
<text text-anchor="middle" x="27" y="-536.3" font-family="Times,serif" font-size="14.00">C/0</text>
</g>
<!-- B/0&#45;&gt;C/0 -->
<g id="edge3" class="edge">
<title>B/0&#45;&gt;C/0</title>
<path fill="none" stroke="black" d="M127.96,-610.74C119.07,-600.12 106.26,-586.12 93,-576 82.45,-567.95 69.79,-560.74 58.39,-554.99"/>
<polygon fill="black" stroke="black" points="59.7,-551.74 49.18,-550.51 56.64,-558.03 59.7,-551.74"/>
<text text-anchor="middle" x="114" y="-579.8" font-family="Times,serif" font-size="14.00">1</text>
</g>
<!-- C/0&#45;&gt;A/0 -->
<g id="edge6" class="edge">
<title>C/0&#45;&gt;A/0</title>
<path fill="none" stroke="black" d="M27.74,-558.3C29.81,-586.6 37.75,-643.11 68,-678 78.48,-690.09 94.02,-698.28 108.25,-703.68"/>
<polygon fill="black" stroke="black" points="107.21,-707.02 117.81,-706.98 109.5,-700.41 107.21,-707.02"/>
<text text-anchor="middle" x="52" y="-623.3" font-family="Times,serif" font-size="14.00">0</text>
</g>
<!-- D/0 -->
<g id="node4" class="node">
<title>D/0</title>
<ellipse fill="none" stroke="black" cx="57" cy="-453" rx="27" ry="18"/>
<text text-anchor="middle" x="57" y="-449.3" font-family="Times,serif" font-size="14.00">D/0</text>
</g>
<!-- C/0&#45;&gt;D/0 -->
<g id="edge5" class="edge">
<title>C/0&#45;&gt;D/0</title>
<path fill="none" stroke="black" d="M32.93,-522.21C37.12,-510.33 42.82,-494.17 47.63,-480.56"/>
<polygon fill="black" stroke="black" points="51.06,-481.35 51.09,-470.76 44.46,-479.02 51.06,-481.35"/>
<text text-anchor="middle" x="49" y="-492.8" font-family="Times,serif" font-size="14.00">1</text>
</g>
<!-- D/0&#45;&gt;A/0 -->
<g id="edge8" class="edge">
<title>D/0&#45;&gt;A/0</title>
<path fill="none" stroke="black" d="M58.97,-471.13C62.24,-497.33 69.68,-548.76 82,-591 89.25,-615.88 92.64,-621.71 104,-645 111.2,-659.76 120.28,-675.72 127.87,-688.47"/>
<polygon fill="black" stroke="black" points="124.92,-690.36 133.08,-697.12 130.92,-686.74 124.92,-690.36"/>
<text text-anchor="middle" x="87" y="-579.8" font-family="Times,serif" font-size="14.00">0</text>
</g>
<!-- E/0 -->
<g id="node5" class="node">
<title>E/0</title>
<ellipse fill="none" stroke="black" cx="57" cy="-366" rx="27" ry="18"/>
<text text-anchor="middle" x="57" y="-362.3" font-family="Times,serif" font-size="14.00">E/0</text>
</g>
<!-- D/0&#45;&gt;E/0 -->
<g id="edge7" class="edge">
<title>D/0&#45;&gt;E/0</title>
<path fill="none" stroke="black" d="M57,-434.8C57,-423.16 57,-407.55 57,-394.24"/>
<polygon fill="black" stroke="black" points="60.5,-394.18 57,-384.18 53.5,-394.18 60.5,-394.18"/>
<text text-anchor="middle" x="62" y="-405.8" font-family="Times,serif" font-size="14.00">1</text>
</g>
<!-- E/0&#45;&gt;E/0 -->
<g id="edge9" class="edge">
<title>E/0&#45;&gt;E/0</title>
<path fill="none" stroke="black" d="M81.53,-373.75C92.51,-374.49 102,-371.91 102,-366 102,-362.03 97.72,-359.56 91.57,-358.59"/>
<polygon fill="black" stroke="black" points="91.65,-355.09 81.53,-358.25 91.41,-362.09 91.65,-355.09"/>
<text text-anchor="middle" x="107" y="-362.3" font-family="Times,serif" font-size="14.00">1</text>
</g>
<!-- F/0 -->
<g id="node6" class="node">
<title>F/0</title>
<ellipse fill="none" stroke="black" cx="123" cy="-279" rx="27" ry="18"/>
<text text-anchor="middle" x="123" y="-275.3" font-family="Times,serif" font-size="14.00">F/0</text>
</g>
<!-- E/0&#45;&gt;F/0 -->
<g id="edge10" class="edge">
<title>E/0&#45;&gt;F/0</title>
<path fill="none" stroke="black" d="M68.8,-349.8C78.78,-336.95 93.25,-318.32 104.72,-303.54"/>
<polygon fill="black" stroke="black" points="107.71,-305.4 111.08,-295.35 102.18,-301.1 107.71,-305.4"/>
<text text-anchor="middle" x="98" y="-318.8" font-family="Times,serif" font-size="14.00">0</text>
</g>
<!-- F/0&#45;&gt;B/0 -->
<g id="edge12" class="edge">
<title>F/0&#45;&gt;B/0</title>
<path fill="none" stroke="black" d="M128.38,-296.74C133.36,-313.74 140,-340.92 140,-365 140,-541 140,-541 140,-541 140,-560.25 140,-581.95 140,-598.6"/>
<polygon fill="black" stroke="black" points="136.5,-598.74 140,-608.74 143.5,-598.74 136.5,-598.74"/>
<text text-anchor="middle" x="145" y="-449.3" font-family="Times,serif" font-size="14.00">1</text>
</g>
<!-- G/0 -->
<g id="node7" class="node">
<title>G/0</title>
<ellipse fill="none" stroke="black" cx="161" cy="-192" rx="27" ry="18"/>
<text text-anchor="middle" x="161" y="-188.3" font-family="Times,serif" font-size="14.00">G/0</text>
</g>
<!-- F/0&#45;&gt;G/0 -->
<g id="edge11" class="edge">
<title>F/0&#45;&gt;G/0</title>
<path fill="none" stroke="black" d="M130.33,-261.61C135.74,-249.5 143.22,-232.77 149.44,-218.86"/>
<polygon fill="black" stroke="black" points="152.81,-219.9 153.7,-209.34 146.42,-217.04 152.81,-219.9"/>
<text text-anchor="middle" x="149" y="-231.8" font-family="Times,serif" font-size="14.00">0</text>
</g>
<!-- G/0&#45;&gt;B/0 -->
<g id="edge14" class="edge">
<title>G/0&#45;&gt;B/0</title>
<path fill="none" stroke="black" d="M166.38,-209.74C171.36,-226.74 178,-253.92 178,-278 178,-541 178,-541 178,-541 178,-563.09 167.17,-585.83 157.07,-602.22"/>
<polygon fill="black" stroke="black" points="154.12,-600.33 151.61,-610.63 159.99,-604.15 154.12,-600.33"/>
<text text-anchor="middle" x="183" y="-405.8" font-family="Times,serif" font-size="14.00">1</text>
</g>
<!-- H/0 -->
<g id="node8" class="node">
<title>H/0</title>
<ellipse fill="none" stroke="black" cx="191" cy="-105" rx="27.1" ry="18"/>
<text text-anchor="middle" x="191" y="-101.3" font-family="Times,serif" font-size="14.00">H/0</text>
</g>
<!-- G/0&#45;&gt;H/0 -->
<g id="edge13" class="edge">
<title>G/0&#45;&gt;H/0</title>
<path fill="none" stroke="black" d="M166.93,-174.21C171.12,-162.33 176.82,-146.17 181.63,-132.56"/>
<polygon fill="black" stroke="black" points="185.06,-133.35 185.09,-122.76 178.46,-131.02 185.06,-133.35"/>
<text text-anchor="middle" x="182" y="-144.8" font-family="Times,serif" font-size="14.00">0</text>
</g>
<!-- H/0&#45;&gt;A/0 -->
<g id="edge15" class="edge">
<title>H/0&#45;&gt;A/0</title>
<path fill="none" stroke="black" d="M198.91,-122.51C206.23,-139.34 216,-166.39 216,-191 216,-628 216,-628 216,-628 216,-656.72 191.71,-680.59 171.16,-695.65"/>
<polygon fill="black" stroke="black" points="169.16,-692.77 162.95,-701.36 173.16,-698.52 169.16,-692.77"/>
<text text-anchor="middle" x="221" y="-405.8" font-family="Times,serif" font-size="14.00">0</text>
</g>
<!-- I/1 -->
<g id="node9" class="node">
<title>I/1</title>
<ellipse fill="none" stroke="black" cx="191" cy="-18" rx="27" ry="18"/>
<text text-anchor="middle" x="191" y="-14.3" font-family="Times,serif" font-size="14.00">I/1</text>
</g>
<!-- H/0&#45;&gt;I/1 -->
<g id="edge16" class="edge">
<title>H/0&#45;&gt;I/1</title>
<path fill="none" stroke="black" d="M191,-86.8C191,-75.16 191,-59.55 191,-46.24"/>
<polygon fill="black" stroke="black" points="194.5,-46.18 191,-36.18 187.5,-46.18 194.5,-46.18"/>
<text text-anchor="middle" x="196" y="-57.8" font-family="Times,serif" font-size="14.00">1</text>
</g>
<!-- I/1&#45;&gt;A/0 -->
<g id="edge18" class="edge">
<title>I/1&#45;&gt;A/0</title>
<path fill="none" stroke="black" d="M210.4,-30.78C231.42,-45.19 262,-71.7 262,-104 262,-628 262,-628 262,-628 262,-669.59 213.26,-692.76 178.17,-704.05"/>
<polygon fill="black" stroke="black" points="176.8,-700.81 168.24,-707.06 178.82,-707.51 176.8,-700.81"/>
<text text-anchor="middle" x="267" y="-362.3" font-family="Times,serif" font-size="14.00">0</text>
</g>
<!-- I/1&#45;&gt;C/0 -->
<g id="edge17" class="edge">
<title>I/1&#45;&gt;C/0</title>
<path fill="none" stroke="black" d="M163.92,-19.23C111.66,-21.25 2,-33.84 2,-104 2,-454 2,-454 2,-454 2,-474.38 8.7,-496.44 15.16,-512.97"/>
<polygon fill="black" stroke="black" points="12.04,-514.58 19.09,-522.49 18.51,-511.91 12.04,-514.58"/>
<text text-anchor="middle" x="7" y="-275.3" font-family="Times,serif" font-size="14.00">1</text>
</g>
</g>
</svg>
