<?xml version="1.0" encoding="UTF-8" standalone="no"?>
<!DOCTYPE svg PUBLIC "-//W3C//DTD SVG 1.1//EN"
 "http://www.w3.org/Graphics/SVG/1.1/DTD/svg11.dtd">
<!-- Generated by graphviz version 2.43.0 (0)
 -->
<!-- Title: %3 Pages: 1 -->
<svg width="160pt" height="392pt"
 viewBox="0.00 0.00 160.00 392.00" xmlns="http://www.w3.org/2000/svg" xmlns:xlink="http://www.w3.org/1999/xlink">
<g id="graph0" class="graph" transform="scale(1 1) rotate(0) translate(4 388)">
<title>%3</title>
<polygon fill="white" stroke="transparent" points="-4,4 -4,-388 156,-388 156,4 -4,4"/>
<!-- A/0 -->
<g id="node1" class="node">
<title>A/0</title>
<ellipse fill="none" stroke="black" cx="76" cy="-366" rx="27" ry="18"/>
<text text-anchor="middle" x="76" y="-362.3" font-family="Times,serif" font-size="14.00">A/0</text>
</g>
<!-- A/0&#45;&gt;A/0 -->
<g id="edge1" class="edge">
<title>A/0&#45;&gt;A/0</title>
<path fill="none" stroke="black" d="M100.53,-373.75C111.51,-374.49 121,-371.91 121,-366 121,-362.03 116.72,-359.56 110.57,-358.59"/>
<polygon fill="black" stroke="black" points="110.65,-355.09 100.53,-358.25 110.41,-362.09 110.65,-355.09"/>
<text text-anchor="middle" x="126" y="-362.3" font-family="Times,serif" font-size="14.00">0</text>
</g>
<!-- B/0 -->
<g id="node2" class="node">
<title>B/0</title>
<ellipse fill="none" stroke="black" cx="27" cy="-279" rx="27" ry="18"/>
<text text-anchor="middle" x="27" y="-275.3" font-family="Times,serif" font-size="14.00">B/0</text>
</g>
<!-- A/0&#45;&gt;B/0 -->
<g id="edge2" class="edge">
<title>A/0&#45;&gt;B/0</title>
<path fill="none" stroke="black" d="M55.78,-353.97C46.96,-348.06 37.42,-339.94 32,-330 28.27,-323.15 26.53,-314.99 25.85,-307.27"/>
<polygon fill="black" stroke="black" points="29.35,-307.05 25.5,-297.18 22.35,-307.3 29.35,-307.05"/>
<text text-anchor="middle" x="37" y="-318.8" font-family="Times,serif" font-size="14.00">1</text>
</g>
<!-- B/0&#45;&gt;A/0 -->
<g id="edge4" class="edge">
<title>B/0&#45;&gt;A/0</title>
<path fill="none" stroke="black" d="M36.34,-296.21C43.52,-308.65 53.55,-326.05 61.73,-340.24"/>
<polygon fill="black" stroke="black" points="58.76,-342.1 66.78,-349.01 64.82,-338.6 58.76,-342.1"/>
<text text-anchor="middle" x="59" y="-318.8" font-family="Times,serif" font-size="14.00">0</text>
</g>
<!-- C/0 -->
<g id="node3" class="node">
<title>C/0</title>
<ellipse fill="none" stroke="black" cx="59" cy="-192" rx="27" ry="18"/>
<text text-anchor="middle" x="59" y="-188.3" font-family="Times,serif" font-size="14.00">C/0</text>
</g>
<!-- B/0&#45;&gt;C/0 -->
<g id="edge3" class="edge">
<title>B/0&#45;&gt;C/0</title>
<path fill="none" stroke="black" d="M33.32,-261.21C37.84,-249.22 44,-232.85 49.15,-219.16"/>
<polygon fill="black" stroke="black" points="52.44,-220.35 52.69,-209.76 45.89,-217.88 52.44,-220.35"/>
<text text-anchor="middle" x="49" y="-231.8" font-family="Times,serif" font-size="14.00">1</text>
</g>
<!-- C/0&#45;&gt;A/0 -->
<g id="edge6" class="edge">
<title>C/0&#45;&gt;A/0</title>
<path fill="none" stroke="black" d="M60.69,-210.05C63.63,-239.88 69.75,-301.76 73.3,-337.64"/>
<polygon fill="black" stroke="black" points="69.84,-338.27 74.31,-347.88 76.81,-337.58 69.84,-338.27"/>
<text text-anchor="middle" x="74" y="-275.3" font-family="Times,serif" font-size="14.00">0</text>
</g>
<!-- D/0 -->
<g id="node4" class="node">
<title>D/0</title>
<ellipse fill="none" stroke="black" cx="59" cy="-105" rx="27" ry="18"/>
<text text-anchor="middle" x="59" y="-101.3" font-family="Times,serif" font-size="14.00">D/0</text>
</g>
<!-- C/0&#45;&gt;D/0 -->
<g id="edge5" class="edge">
<title>C/0&#45;&gt;D/0</title>
<path fill="none" stroke="black" d="M59,-173.8C59,-162.16 59,-146.55 59,-133.24"/>
<polygon fill="black" stroke="black" points="62.5,-133.18 59,-123.18 55.5,-133.18 62.5,-133.18"/>
<text text-anchor="middle" x="64" y="-144.8" font-family="Times,serif" font-size="14.00">1</text>
</g>
<!-- D/0&#45;&gt;D/0 -->
<g id="edge7" class="edge">
<title>D/0&#45;&gt;D/0</title>
<path fill="none" stroke="black" d="M83.53,-112.75C94.51,-113.49 104,-110.91 104,-105 104,-101.03 99.72,-98.56 93.57,-97.59"/>
<polygon fill="black" stroke="black" points="93.65,-94.09 83.53,-97.25 93.41,-101.09 93.65,-94.09"/>
<text text-anchor="middle" x="109" y="-101.3" font-family="Times,serif" font-size="14.00">1</text>
</g>
<!-- E/1 -->
<g id="node5" class="node">
<title>E/1</title>
<ellipse fill="none" stroke="black" cx="59" cy="-18" rx="27" ry="18"/>
<text text-anchor="middle" x="59" y="-14.3" font-family="Times,serif" font-size="14.00">E/1</text>
</g>
<!-- D/0&#45;&gt;E/1 -->
<g id="edge8" class="edge">
<title>D/0&#45;&gt;E/1</title>
<path fill="none" stroke="black" d="M59,-86.8C59,-75.16 59,-59.55 59,-46.24"/>
<polygon fill="black" stroke="black" points="62.5,-46.18 59,-36.18 55.5,-46.18 62.5,-46.18"/>
<text text-anchor="middle" x="64" y="-57.8" font-family="Times,serif" font-size="14.00">0</text>
</g>
<!-- E/1&#45;&gt;A/0 -->
<g id="edge9" class="edge">
<title>E/1&#45;&gt;A/0</title>
<path fill="none" stroke="black" d="M80.37,-29.22C104.97,-42.65 142,-68.73 142,-104 142,-280 142,-280 142,-280 142,-307.06 120.88,-330.7 102.53,-346.14"/>
<polygon fill="black" stroke="black" points="100.02,-343.67 94.38,-352.64 104.39,-349.14 100.02,-343.67"/>
<text text-anchor="middle" x="147" y="-188.3" font-family="Times,serif" font-size="14.00">0</text>
</g>
<!-- E/1&#45;&gt;B/0 -->
<g id="edge10" class="edge">
<title>E/1&#45;&gt;B/0</title>
<path fill="none" stroke="black" d="M47.9,-34.58C39.21,-47.82 27.8,-67.68 23,-87 8.85,-143.98 16.18,-213.49 22.05,-250.95"/>
<polygon fill="black" stroke="black" points="18.64,-251.77 23.73,-261.07 25.55,-250.63 18.64,-251.77"/>
<text text-anchor="middle" x="21" y="-144.8" font-family="Times,serif" font-size="14.00">1</text>
</g>
</g>
</svg>
